<svg width="25" height="34" viewBox="0 0 25 34" fill="none" xmlns="http://www.w3.org/2000/svg">
<path d="M21.25 0.916687C22.0235 0.916687 22.7654 1.22398 23.3124 1.77096C23.8594 2.31794 24.1666 3.05981 24.1666 3.83335V27.1667C24.1666 27.9402 23.8594 28.6821 23.3124 29.2291C22.7654 29.7761 22.0235 30.0834 21.25 30.0834H3.74998C2.97643 30.0834 2.23457 29.7761 1.68758 29.2291C1.1406 28.6821 0.833313 27.9402 0.833313 27.1667V3.83335C0.833313 3.05981 1.1406 2.31794 1.68758 1.77096C2.23457 1.22398 2.97643 0.916687 3.74998 0.916687H21.25ZM12.5 16.9584H8.12498C7.73821 16.9584 7.36727 17.112 7.09378 17.3855C6.82029 17.659 6.66665 18.0299 6.66665 18.4167C6.66665 18.8035 6.82029 19.1744 7.09378 19.4479C7.36727 19.7214 7.73821 19.875 8.12498 19.875H12.5C12.8868 19.875 13.2577 19.7214 13.5312 19.4479C13.8047 19.1744 13.9583 18.8035 13.9583 18.4167C13.9583 18.0299 13.8047 17.659 13.5312 17.3855C13.2577 17.112 12.8868 16.9584 12.5 16.9584ZM16.875 9.66669H8.12498C7.75328 9.6671 7.39577 9.80943 7.12548 10.0646C6.8552 10.3198 6.69255 10.6685 6.67077 11.0396C6.64899 11.4106 6.76971 11.776 7.00828 12.061C7.24685 12.3461 7.58526 12.5292 7.95436 12.5731L8.12498 12.5834H16.875C17.2467 12.5829 17.6042 12.4406 17.8745 12.1854C18.1448 11.9303 18.3074 11.5815 18.3292 11.2105C18.351 10.8394 18.2302 10.4741 17.9917 10.189C17.7531 9.90398 17.4147 9.7208 17.0456 9.67689L16.875 9.66669Z" fill="#6552FE"/>
</svg>
