<svg width="20" height="25" viewBox="0 0 20 25" fill="none" xmlns="http://www.w3.org/2000/svg">
<path d="M19.3333 8.33334H15.8333V6.24501C15.8333 3.20001 13.605 0.481677 10.5717 0.19001C7.095 -0.136656 4.16666 2.59334 4.16666 6.00001V8.33334H0.666664V24.6667H19.3333V8.33334ZM10 18.8333C8.71666 18.8333 7.66666 17.7833 7.66666 16.5C7.66666 15.2167 8.71666 14.1667 10 14.1667C11.2833 14.1667 12.3333 15.2167 12.3333 16.5C12.3333 17.7833 11.2833 18.8333 10 18.8333ZM6.5 8.33334V6.00001C6.5 4.06334 8.06333 2.50001 10 2.50001C11.9367 2.50001 13.5 4.06334 13.5 6.00001V8.33334H6.5Z" fill="#6552FE" fill-opacity="0.68"/>
</svg>
