<svg width="28" height="28" viewBox="0 0 28 28" fill="none" xmlns="http://www.w3.org/2000/svg">
<g clip-path="url(#clip0_269_24)">
<path d="M23.3333 9.33334H19.8333V7.24501C19.8333 4.20001 17.605 1.48168 14.5716 1.19001C11.095 0.863344 8.16663 3.59334 8.16663 7.00001V9.33334H4.66663V25.6667H23.3333V9.33334ZM14 19.8333C12.7166 19.8333 11.6666 18.7833 11.6666 17.5C11.6666 16.2167 12.7166 15.1667 14 15.1667C15.2833 15.1667 16.3333 16.2167 16.3333 17.5C16.3333 18.7833 15.2833 19.8333 14 19.8333ZM10.5 9.33334V7.00001C10.5 5.06334 12.0633 3.50001 14 3.50001C15.9366 3.50001 17.5 5.06334 17.5 7.00001V9.33334H10.5Z" fill="#7C6BFF"/>
</g>
<defs>
<clipPath id="clip0_269_24">
<rect width="28" height="28" fill="white"/>
</clipPath>
</defs>
</svg>
