<svg width="37" height="37" viewBox="0 0 37 37" fill="none" xmlns="http://www.w3.org/2000/svg">
<path d="M18.5 3.00464C19.3353 3.00464 20.1525 3.07074 20.9518 3.20294L18.1395 6.01527C15.7949 6.08563 13.5222 6.8405 11.6015 8.18684C9.68076 9.53318 8.19598 11.4121 7.33017 13.5921C6.46436 15.772 6.25537 18.1577 6.72896 20.455C7.20255 22.7523 8.33801 24.8608 9.99539 26.5205C11.6528 28.1803 13.7596 29.3189 16.0562 29.7958C18.3528 30.2727 20.7388 30.0672 22.92 29.2046C25.1012 28.342 26.9823 26.8599 28.3314 24.9412C29.6805 23.0224 30.4387 20.7508 30.5125 18.4064L33.3278 15.594C33.458 16.3852 33.5231 17.1965 33.5231 18.0278C33.5231 20.9991 32.642 23.9036 30.9913 26.3742C29.3405 28.8447 26.9942 30.7703 24.2491 31.9073C21.504 33.0444 18.4833 33.3419 15.5691 32.7622C12.6549 32.1826 9.97807 30.7518 7.87705 28.6507C5.77603 26.5497 4.34521 23.8728 3.76554 20.9586C3.18587 18.0444 3.48338 15.0238 4.62044 12.2787C5.75751 9.53355 7.68306 7.18726 10.1536 5.53649C12.6241 3.88573 15.5287 3.00464 18.5 3.00464ZM31.8435 4.69324C31.3095 4.15913 30.6755 3.73546 29.9777 3.4464C29.28 3.15734 28.5321 3.00856 27.7768 3.00856C27.0215 3.00856 26.2736 3.15734 25.5758 3.4464C24.8781 3.73546 24.2441 4.15913 23.71 4.69324L15.9461 12.4572C15.7826 12.6211 15.6592 12.8206 15.5855 13.0401L12.629 21.8136C12.5308 22.1051 12.516 22.4181 12.5861 22.7176C12.6562 23.017 12.8084 23.291 13.0258 23.5086C13.2431 23.7262 13.5168 23.8789 13.8161 23.9494C14.1155 24.0199 14.4286 24.0055 14.7202 23.9078L23.4937 20.9573C23.7143 20.884 23.9148 20.7606 24.0796 20.5967L31.8435 12.8298C32.3777 12.2957 32.8013 11.6617 33.0904 10.964C33.3794 10.2662 33.5282 9.51829 33.5282 8.76301C33.5282 8.00772 33.3794 7.25984 33.0904 6.56206C32.8013 5.86428 32.3777 5.22727 31.8435 4.69324Z" fill="#6552FE"/>
</svg>
