<svg width="33" height="29" viewBox="0 0 33 29" fill="none" xmlns="http://www.w3.org/2000/svg">
<path d="M16.5 3.57085C18.7717 3.57085 20.6125 5.25502 20.6125 7.33335C20.6125 9.41169 18.7717 11.0959 16.5 11.0959C14.2283 11.0959 12.3875 9.41169 12.3875 7.33335C12.3875 5.25502 14.2283 3.57085 16.5 3.57085ZM16.5 19.6959C22.3162 19.6959 28.4458 22.3117 28.4458 23.4584V25.4292H4.55416V23.4584C4.55416 22.3117 10.6837 19.6959 16.5 19.6959ZM16.5 0.166687C12.1721 0.166687 8.66666 3.37377 8.66666 7.33335C8.66666 11.2929 12.1721 14.5 16.5 14.5C20.8279 14.5 24.3333 11.2929 24.3333 7.33335C24.3333 3.37377 20.8279 0.166687 16.5 0.166687ZM16.5 16.2917C11.2712 16.2917 0.833328 18.6925 0.833328 23.4584V28.8334H32.1667V23.4584C32.1667 18.6925 21.7287 16.2917 16.5 16.2917Z" fill="#6552FE"/>
</svg>
